/* XPM */
static char *result[] = {
/* columns rows colors chars-per-pixel */
"80 80 161 2 ",
"   c #030100",
".  c #080500",
"X  c #0C0905",
"o  c #0B0B0B",
"O  c #100E0C",
"+  c #151413",
"@  c #1D1D1D",
"#  c #181E15",
"$  c #1C2717",
"%  c #202A1B",
"&  c #232323",
"*  c #2C2C2C",
"=  c #2B3A26",
"-  c #373737",
";  c #3A3A3A",
":  c #3B373C",
">  c #374431",
",  c #3C4C35",
"<  c #425237",
"1  c #465639",
"2  c #495C3C",
"3  c #475D3E",
"4  c #4F603E",
"5  c #361E43",
"6  c #392445",
"7  c #3C2B47",
"8  c #3F3048",
"9  c #42354A",
"0  c #453B4C",
"q  c #483F4D",
"w  c #423E44",
"e  c #444444",
"r  c #4A434D",
"t  c #4C4B4C",
"y  c #4D4552",
"u  c #574C5F",
"i  c #545455",
"p  c #5B5B5B",
"a  c #5B575C",
"s  c #50504F",
"d  c #4D6544",
"f  c #536442",
"g  c #546946",
"h  c #5B6D49",
"j  c #566F48",
"k  c #5D724B",
"l  c #5F784B",
"z  c #5A7550",
"x  c #60724D",
"c  c #637C4B",
"v  c #617E56",
"b  c #594D60",
"n  c #574C60",
"m  c #5D5463",
"M  c #5F5F61",
"N  c #625C66",
"B  c #5F6061",
"V  c #636264",
"C  c #666169",
"Z  c #6D6D6D",
"A  c #69676B",
"S  c #6F6E70",
"D  c #737373",
"F  c #77737A",
"G  c #79767B",
"H  c #77787A",
"J  c #7C7B7C",
"K  c #648157",
"L  c #6D8753",
"P  c #6B895B",
"I  c #738E5A",
"U  c #74935D",
"Y  c #78965C",
"T  c #6F9162",
"R  c #749565",
"E  c #7B9560",
"W  c #7F9E61",
"Q  c #7DA16B",
"!  c #819B66",
"~  c #84A36C",
"^  c #88A56B",
"/  c #86AA6C",
"(  c #8BAE6D",
")  c #87AC71",
"_  c #8CB272",
"`  c #92B572",
"'  c #96BC74",
"]  c #99BF73",
"[  c #99BB79",
"{  c #94BB7A",
"}  c #9CC276",
"|  c #9DC379",
" . c #A0C37C",
".. c #A4CA7E",
"X. c #7E7F81",
"o. c #807E82",
"O. c #7F8182",
"+. c #828283",
"@. c #8D8C8D",
"#. c #878788",
"$. c #8D8F91",
"%. c #8F9193",
"&. c #939392",
"*. c #989897",
"=. c #989798",
"-. c #9B9B9B",
";. c #959698",
":. c #9C9EA0",
">. c #9EA0A2",
",. c #A4A4A5",
"<. c #AAAAAB",
"1. c #A5A7A9",
"2. c #AEAFB2",
"3. c #AEB0B3",
"4. c #B1B3B5",
"5. c #B5B6B8",
"6. c #B9BBBE",
"7. c #B6B8BB",
"8. c #9DC580",
"9. c #A6C684",
"0. c #A6CC82",
"q. c #A8CD84",
"w. c #AACA88",
"e. c #ACD385",
"r. c #AED789",
"t. c #B0D48B",
"y. c #B3DA8C",
"u. c #B8DC92",
"i. c #B7DF90",
"p. c #B8E28F",
"a. c #BCE394",
"s. c #BEE398",
"d. c #C0E797",
"f. c #C1EA97",
"g. c #C1E79B",
"h. c #C5ED9C",
"j. c #C8EF9F",
"k. c #C7F09D",
"l. c #C9F29F",
"z. c #CDF5A4",
"x. c #CFF8A5",
"c. c #D0F9A6",
"v. c #D4FDAA",
"b. c #D9FFAD",
"n. c #DDFFB1",
"m. c #E1FFB5",
"M. c #BBBDC0",
"N. c #BEC0C3",
"B. c #C1C3C6",
"V. c #C4C6C9",
"C. c #C7C9CD",
"Z. c #C9CBCF",
"A. c #CBCDD1",
"S. c #CFD2D5",
"D. c #D0D3D7",
"F. c #D1D4D8",
"G. c #D7DADE",
"H. c #D8DBDF",
"J. c #DBDEE2",
"K. c #DEE1E5",
"L. c None",
/* pixels */
"; - - - * & + .       . . .   . . . . . . . . . . . . . . . . . . .   . . . . . . . . . . . . . . . . . . . . . . . . . . . . . . . .   .       . + & * * - ; - ",
"; ; - * * @ + .       . . . . . . . . . . . . . . . . . . . . . . . . . . . . . . . . . . . . . . . . . . . . . . . . . . . . . . . . . .       . + @ * - - ; ; ",
"- - ; - - - - - - - - - - - - - - - - 7 - - - - - - - - - - - : - - - - - - - - - - - - - - - - - - - - - - - - - - - - - - - - - - - - - - - - - - - - - - - - ",
"- - ; ; t i p M B V B B M M M M M M B m M M M M M M M M M M M M M M M M M M M M M M M M M M M M M M M M M M B m M M M M M M M M M M M m M B B C p a i t e - * * ",
"& * - t p A H O.+.#.+.O.O.O.O.O.o.o.X.X.X.X.! +.O.O.O.O.O.O.X.X.X.X.O.O.O.X.O.O.X.o.O.X.X.X.X.X.X.X.X.X.O.O.X.X.X.X.X.X.X.X.O.O.X.X.X.X.X.#.X.#.O.H Z M t - * * ",
"% & - i Z O.%.:.:.:.:.:.-.:.-.:.;.:.:.:.:.:.:.-.:.-.;.:.:.:.;.:.:.:.:.;.:.-.:.:.;.:.:.:.:.:.:.:.:.:.;.:.:.:.:.:.:.:.:.:.-.:.-.:.:.:.:.:.:.:.:.:.-.%.O.Z s - & & ",
"+ + - p H %.>.3.M.4.4.3.2.2.2.2.2.2.2.2.2.2.3.3.2.2.2.2.2.2.2.2.2.2.2.2.2.2.2.2.2.2.2.2.2.2.4.2.2.2.2.2.2.2.2.2.2.2.2.2.2.2.2.2.3.3.3.4.3.4.5.5.3.>.%.H p - + + ",
". . - N O.-.3.M.N.N.M.M.M.M.M.M.M.M.M.M.M.M.M.6.M.M.M.M.M.M.M.M.M.M.M.M.M.M.M.M.M.M.M.M.M.M.M.M.M.M.M.M.M.M.M.M.M.M.M.M.M.M.M.M.M.M.M.M.M.M.B.B.M.3.:.O.M - . . ",
"    - B #.:.7.B.Z.Z.V.B.B.B.B.B.B.B.B.B.B.B.B.B.B.B.B.B.B.B.B.B.M.B.B.B.B.B.B.B.B.B.B.B.B.B.B.B.B.B.B.B.B.B.B.B.M.N.B.B.B.B.B.B.B.B.B.B.B.V.C.C.N.4.>.+.B -     ",
"    - B #.:.5.N.C.C.V.V.B.B.B.B.B.V.B.B.B.B.B.V.B.B.B.B.B.B.B.B.B.B.B.B.B.B.B.B.B.B.B.B.B.B.B.B.B.B.B.V.B.B.B.B.B.B.N.V.B.B.B.B.B.V.B.B.B.V.C.C.V.5.>.#.V -     ",
"    : M X.:.4.M.V.V.B.N.N.N.N.N.B.M.M.B.M.B.B.M.M.B.B.B.B.M.B.M.N.B.M.N.B.N.N.M.M.B.M.B.N.N.B.M.N.N.N.N.N.N.M.N.N.N.N.N.N.N.N.N.N.N.N.N.N.V.V.C.N.4.:.O.B -     ",
"  . : M X.:.2.M.N.V.N.M.M.M.M.M.M.M.M.M.M.M.M.M.M.M.M.M.M.M.M.M.M.M.M.M.M.M.M.M.M.M.M.M.M.M.M.M.M.M.M.M.M.M.M.M.M.M.M.N.M.M.M.M.M.M.M.M.M.B.B.B.M.3.:.O.B - . . ",
". . : M X.:.2.M.B.B.B.M.M.M.M.M.M.M.M.M.M.M.M.6.M.6.M.M.M.M.M.M.M.M.M.M.M.M.M.M.M.M.M.M.M.M.M.M.M.M.M.M.M.M.M.M.M.M.M.M.M.M.M.M.M.M.M.M.M.N.B.N.M.3.:.O.M - . . ",
". . - B X.:.2.M.B.B.N.M.M.M.M.M.M.M.M.M.M.M.M.M.M.M.M.M.M.M.M.M.M.M.M.M.M.M.M.M.M.M.M.M.M.M.M.M.M.M.M.M.M.M.M.M.M.M.M.M.M.M.M.M.M.M.M.M.M.N.B.V.M.3.:.O.M - . . ",
". . - B X.:.4.M.B.B.N.M.M.M.M.M.6.M.M.M.M.M.M.M.M.M.M.M.6.M.M.M.M.M.M.M.M.M.M.M.M.M.M.M.M.M.M.M.M.M.M.M.M.M.M.M.M.M.M.M.M.M.M.M.M.M.M.M.M.N.V.N.M.2.:.X.M - . . ",
". . - B X.:.4.M.B.B.N.M.M.M.M.M.M.M.M.M.M.M.M.M.M.M.M.M.M.M.M.M.M.M.M.M.M.M.M.M.M.M.M.M.M.M.M.M.M.M.M.M.M.M.M.M.M.M.M.M.M.M.M.M.M.M.M.M.N.N.N.M.M.2.:.X.M - . . ",
". . - B O.:.2.M.V.N.N.N.N.M.M.M.M.M.M.M.M.M.M.M.M.M.M.M.M.M.M.M.M.M.M.M.M.M.M.M.M.M.M.M.M.M.M.M.M.M.M.M.M.M.M.M.M.6.M.M.M.M.M.M.M.M.M.M.N.N.N.V.N.3.-.O.M - . . ",
"  o - B O.:.2.M.N.V.N.N.M.6.M.6.M.M.M.M.M.M.M.M.M.M.M.M.M.M.M.M.M.M.M.M.M.M.M.M.M.M.M.M.M.M.6.M.M.M.M.M.M.M.M.M.M.M.M.M.M.M.M.M.6.N.M.M.M.N.V.N.6.3.-.O.B - . . ",
". . - B X.-.2.M.N.N.N.M.M.M.M.N.M.M.M.M.M.M.M.6.M.M.6.6.6.M.M.M.M.M.M.M.M.M.M.M.M.M.M.M.M.M.M.M.M.M.M.M.M.M.M.M.M.M.M.M.M.M.M.M.N.6.6.M.6.N.N.V.M.2.:.O.M - . . ",
". X - B X.;.2.M.N.N.N.6.M.6.6.6.6.M.6.6.6.M.6.M.6.M.6.6.M.6.6.M.6.M.6.6.6.6.M.6.6.6.6.M.6.6.6.6.M.M.M.M.M.6.6.6.6.M.6.6.M.6.M.6.6.6.M.6.6.N.N.N.M.2.-.O.M - X . ",
". X - B X.;.2.M.N.N.N.6.6.6.6.6.6.6.6.6.6.7.6.6.6.6.6.6.6.5.6.6.6.6.6.6.6.6.6.5.6.6.6.6.6.6.6.6.7.7.6.6.6.7.6.6.6.6.6.6.7.6.6.6.6.6.6.6.6.M.N.N.7.2.;.X.M - X X ",
"o o - B X.-.2.7.N.N.M.6.7.6.7.6.6.7.6.7.6.6.7.6.6.6.6.6.6.6.6.6.6.6.6.6.6.6.6.6.6.6.6.6.6.6.6.6.7.M.6.6.6.6.6.6.7.6.7.6.6.6.6.7.6.6.7.6.6.N.N.N.7.2.:.O.M - o . ",
". . : B O.:.2.M.N.V.N.N.M.6.N.6.M.M.N.M.M.N.M.M.6.M.M.M.M.M.6.M.M.6.6.M.6.6.M.6.6.6.6.M.6.6.6.6.M.M.M.M.M.M.M.M.M.M.M.M.M.M.M.M.N.M.6.N.M.N.N.B.M.3.:.O.M : . . ",
"    : B O.>.4.N.C.V.V.V.B.B.V.N.V.N.V.N.N.N.V.N.B.B.B.B.B.B.B.B.V.B.B.B.B.B.V.B.V.B.B.V.B.B.V.V.B.B.B.B.B.B.B.B.B.B.B.B.B.B.B.B.N.V.N.V.N.V.C.C.N.4.:.O.B -     ",
"    - V #.1.N.A.D.A.A.A.Z.Z.Z.Z.Z.Z.Z.Z.Z.Z.Z.Z.Z.Z.Z.Z.Z.Z.Z.Z.C.Z.Z.Z.Z.Z.Z.Z.Z.Z.Z.Z.Z.Z.Z.Z.Z.Z.Z.Z.Z.Z.Z.Z.C.Z.Z.Z.Z.Z.Z.Z.A.Z.Z.Z.A.S.S.S.Z.N.1.@.V -     ",
"    - A %.3.N.F.J.J.G.F.F.F.F.F.F.F.F.F.F.D.D.F.F.F.F.F.F.F.F.F.F.F.F.F.F.F.F.F.F.F.F.F.F.F.F.F.F.F.F.F.F.F.F.F.F.F.F.S.F.F.F.F.F.F.S.F.F.F.G.G.F.N.3.%.A -     ",
"    - Z %.4.V.J.K.K.J.J.G.G.G.G.G.G.G.G.G.G.G.G.G.G.G.G.G.G.G.G.G.G.G.G.G.G.G.G.G.G.G.G.G.G.G.G.G.G.G.G.G.G.G.G.G.G.G.G.G.G.G.G.G.G.G.G.H.K.K.K.J.N.4.%.Z -     ",
"    - Z %.4.C.J.K.K.J.G.G.G.G.G.G.G.G.G.G.G.G.G.G.G.G.G.G.G.G.G.G.G.G.G.G.G.G.G.G.G.G.G.G.G.G.G.G.G.G.G.G.G.G.G.G.G.G.J.G.G.G.G.G.G.G.G.H.K.K.K.J.A.4.%.A -     ",
"    - A $.2.N.F.F.J.F.F.F.F.S.S.S.F.D.D.D.D.D.D.D.D.F.F.D.D.F.F.D.D.F.F.S.F.F.S.F.F.F.S.F.F.F.F.D.D.D.D.F.F.D.D.D.D.D.D.F.F.F.F.S.S.S.F.F.F.G.G.D.N.3.$.Z - .   ",
"    - V #.>.7.V.Z.Z.Z.C.V.V.V.V.V.V.V.B.V.V.V.V.V.V.V.V.V.V.V.V.V.V.V.V.V.V.C.B.V.V.V.V.V.V.V.V.V.V.V.V.V.V.V.V.V.V.V.V.B.B.C.B.V.V.V.V.C.C.A.Z.N.M.>.O.N -     ",
"o O - M J ;.1.5.M.M.7.7.5.5.5.5.5.5.5.5.5.5.5.5.5.5.5.5.5.5.5.5.5.5.5.5.5.5.5.5.5.5.5.5.5.5.5.5.5.5.5.5.5.5.5.5.5.5.5.5.5.5.5.5.5.5.5.5.5.6.N.6.7.1.:.O.M - O O ",
"@ @ - i D #.-.1.<.<.<.>.1.1.1.1.1.1.1.1.,.1.,.1.1.1.1.,.,.,.1.1.1.,.,.1.,.1.,.1.1.,.1.1.,.,.,.1.,.<.,.,.,.1.,.<.,.,.1.,.1.1.,.1.1.1.1.1.1.1.<.2.>.:.#.S i - @ @ ",
"& % - s Z J @.*.-.=.=.=.=.&.=.=.*.*.*.*.*.*.*.*.*.*.*.*.=.=.*.=.=.=.*.*.*.=.=.=.*.*.*.=.=.*.*.*.*.*.*.*.*.*.*.&.=.=.*.*.*.*.*.*.*.*.*.*.*.=.-.-.-.@.o.A s : & & ",
"* & - s V J #.&.=.=.=.&.&.&.%.&.&.&.&.&.&.&.&.&.&.&.&.&.&.&.&.&.&.&.&.&.&.&.&.&.&.&.&.&.&.&.&.&.&.&.&.&.&.&.&.&.&.&.&.&.&.&.&.&.&.&.&.&.&.&.*.*.&.#.J V s - & & ",
"& & - s A J #.&.=.=.=.=.&.&.%.&.@.&.&.&.&.&.&.&.&.&.&.&.&.&.&.&.&.&.&.&.&.&.&.&.&.&.&.&.&.&.&.&.&.&.&.&.&.*.&.&.&.*.&.&.&.&.&.&.&.&.&.&.&.*.*.-.=.^ J A s - & & ",
"& % - s Z +.&.=.-.-.-.=.=.&.=.=.*.*.*.*.=.*.-.-.*.-.*.-.*.*.=.-.=.-.-.*.-.*.*.*.-.=.-.-.*.*.-.=.-.=.*.*.=.-.=.-.*.*.=.*.*.*.*.&.&.*.*.*.=.-.-.-.=.@.J Z i : & & ",
"& & : s Z o.&.-.,.,.-.-.=.=.-.-.*.-.-.*.-.-.-.-.-.-.-.-.-.-.-.-.:.-.-.-.-.-.-.-.-.-.-.-.-.-.-.-.-.-.-.-.-.-.-.-.-.-.-.*.*.-.-.*.=.=.-.-.-.-.,.:.-.&.+.Z s : & & ",
"& & : i Z J @.*.-.-.-.-.:.=.=.=.*.-.*.*.*.*.*.*.*.-.*.-.=.-.-.-.*.=.-.=.*.-.*.-.=.=.-.=.=.=.=.*.*.-.-.=.=.-.=.=.-.*.*.*.*.*.*.*.*.*.*.*.-.-.-.-.=.@.J Z s - & % ",
"& * - t N F o.o.&.&.&.&.&.&.=.=.&.&.&.@.&.@.&.@.@.@.@.@.@.@.$.@.@.@.@.@.@.@.@.@.@.@.@.@.@.@.@.@.@.@.@.@.@.@.@.@.@.&.@.&.@.&.&.&.&.&.&.&.&.&.&.&.@.o.G V s ; & * ",
"* * : t N S o.o.! #.#.#.$.o.@.o.#.#.#.#.+.+.J J J J J J G G G X.J G F F F F F F F F F F F J G G J J G J J J J o.J J o.o.#.#.#.@.@.#.@.#.#.#.#.+.o.F Z a t ; * * ",
"- - ; < s a V A S D J J J ! ! o.+.J J D D Z Z V A V V C M N M m N N m b u u u u u u n b a m N N N N N N V C C V A Z Z D D J J ! o.! o.J J F D D A V p t e ; - - ",
"; : ; w q e t i p V A D F X.D J H D S A V p s s t t y t q r r 0 9 9 9 9 9 5 5 5 5 5 5 5 6 9 9 9 q q q y r t t t t s p V Z S F X.J J F F S Z N m s t e e e ; - ; ",
"- - - ; - * * - e i N A A F F D D D A B i e - = * * - - - : - - - - - - - - : : - - : - - - - - - - - - - - - * * ; e s N A S F D D D D Z M i < - * * - - - - - ",
"- ; - * * @ + % : s N A F F J J J D Z B s ; & # $ > > , , < 1 1 1 4 f f h x x x x x x h h 4 4 4 1 < < , , > = $ # & ; s M A D F J J G G Z M s : & # @ & - - - ; ",
"; ; - - & o X & ; i A F o.o.o.o.o.o.D V s : & $ = , 4 d j j k l c L I ! ! ! ! ^ ! ^ ! ! ! I L c l k j j d d , = % & : i V X.X.o.o.#.o.J D A i ; & o O & - - - ; ",
"L.L.L.L.& O + * t V D ! #.&.&.&.;.o.! S a w * = , d j K I I U Y ! ^ ` [  . .w.w.w.w.9.9.[ ( ^ ! Y U I I K z d , = * w a S ! @.o.%.%.&.#.! D V t * + + @ L.L.L.L.",
"L.L.L.L.L.+ @ - i A J #.&.=.=.=.=.&.#.G N r - > d z P R Q Q / ( ' } q.t.u.s.g.g.h.g.s.u.t.9.} ` ( / Q Q R P k 2 - - y N o.o.&.=.=.-.;.%.o.o.A i - @ + L.L.L.L.L.",
"L.L.L.L.L.o @ - i D o.@.-.-.>.>.-.:.@.J N q - , d K R / _ ` ' | ..e.u.d.j.z.c.c.v.c.z.j.s.u.t...} ' ` _ / R K 4 < - q N G @.=.:.:.:.:.:.%.o.S i - @ o L.L.L.L.L.",
"L.L.L.L.L.  @ - i D +.&.-.>.,.,.-.-.&.J N y - < h L Q _ [ | 0.0.r.a.f.k.x.v.b.b.b.b.v.c.l.f.p.y.0...| | _ Q L j , - r N X.@.-.>.,.,.-.*.&.+.S i ; @ . L.L.L.L.L.",
"L.L.L.L.L.  @ - a S +.&.-.>.,.>.,.-.@.J N q - < h I ~ ` | 0.e.y.a.f.k.z.v.v.v.b.b.b.v.c.z.h.d.a.y.e.0.| ` ~ I j 1 - y N X.$.-.>.,.-.,.*.&.#.S a ; # . L.L.L.L.L.",
"L.L.L.L.L.  @ - i D +.$.*.,.-.,.:.-.@.J N q : 1 j U / ' ..e.y.d.s.k.z.z.x.v.b.v.v.v.v.c.x.l.j.g.p.y.e.8.' / U k 1 - e N J &.*.:.,.,.,.=.@.+.D i - @ . L.L.L.L.L.",
"L.L.L.L.L.o @ - i S +.$.*.:.:.:.:.=.@.J N q - 1 c Y ( } ..y.i.d.k.z.x.x.x.x.c.c.c.c.c.c.c.z.z.j.s.a.y.0.} ( Y l 1 - q M G @.*.:.-.,.-.=.@.+.S a - @ O L.L.L.L.L.",
"L.L.L.L.L.o @ ; a S o.@.*.:.,.-.-.*.@.J N 9 : 2 L Y ' ..t.i.d.j.z.c.c.z.z.z.z.z.x.z.z.z.z.v.z.z.z.s.a.y...} Y L 2 - 0 m G @.*.-.,.-.-.-.@.o.Z a - @ o L.L.L.L.L.",
"L.L.L.L.L.o @ - i S o.@.*.-.,.-.:.*.@.G N 9 - 4 L /  .e.p.d.j.z.x.c.x.z.z.k.j.h.j.j.j.l.z.z.v.z.z.z.s.p.e.} ^ L 4 - 9 m G @.=.:.-.,.-.-.@.! D i - @ o L.L.L.L.L.",
"L.L.L.L.L.o @ - i S o.&.*.,.-.,.-.*.@.G b 9 - f I ` ..u.f.j.l.z.x.z.z.j.f.s.s.s.a.a.s.f.h.z.c.z.z.z.s.a.p.0._ U 4 : 9 u G @.=.:.-.-.-.=.@.o.S i - @ o L.L.L.L.L.",
"L.L.L.L.L.o @ - i D ! @.*.-.-.-.:.=.@.G u 7 - g Y ' t.d.l.z.x.x.x.z.j.s.a.y.y.t.y.y.y.a.g.h.z.z.z.x.x.z.a.r.[ E h - 9 m G @.*.:.,.-.,.=.&.o.Z a - @ o L.L.L.L.L.",
"L.L.L.L.L.X @ - i S o.&.=.-.,.-.:.=.@.F b 6 - h !  .u.h.c.c.c.c.z.z.h.a.y.e.0.....e.e.y.p.f.z.z.c.c.c.z.j.u.9.! h - 9 u F @.=.-.-.,.-.=.@.+.S i ; @ o L.L.L.L.L.",
"L.L.L.L.L.X @ - i S o.@.=.-.>.,.-.=.@.F b 6 - x ! 9.g.z.v.v.v.c.z.j.s.y.e... .| } } ..e.i.d.j.z.c.v.b.c.z.s.9.^ h - 5 u F @.=.-.,.-.-.=.@.+.S a - @ o L.L.L.L.L.",
"L.L.L.L.L.o & - a S ! @.=.-.>.>.:.=.@.F b 5 - x ^ w.g.c.b.v.b.c.z.j.a.y...} } } ' }  .e.y.a.h.z.c.b.n.v.z.g.w.^ x - 5 b G @.=.-.-.,.>.=.@.+.S i - @ o L.L.L.L.L.",
"L.L.L.L.L.o @ - i S o.$.=.-.,.-.-.=.@.F b 5 - x ^ w.g.c.b.b.v.c.z.h.a.t.e.} } ' } } } ..y.a.h.z.c.b.n.n.c.g.w.^ x - 5 u F @.=.-.-.,.-.=.@.+.S i - @ o L.L.L.L.L.",
"L.L.L.L.L.O & - i S +.@.=.-.,.-.-.-.@.F n 5 : x ^ w.g.v.b.b.v.v.z.h.a.y...} } ] ' } } ..y.s.h.z.c.v.b.b.c.g.w.^ x - 5 b F @.=.-.>.-.-.=.@.+.Z p - @ o L.L.L.L.L.",
"L.L.L.L.L.X @ - i Z +.&.=.-.-.,.-.=.@.F n 5 - x ~ w.g.c.b.b.v.v.z.h.a.y.e. .} } } } } e.y.s.h.z.c.b.v.b.c.s.w.! x - 5 b F @.=.-.:.>.>.=.@.+.S i - @ o L.L.L.L.L.",
"L.L.L.L.L.O @ - a Z o.@.-.-.,.-.-.-.$.F n 6 - h ! 9.u.c.v.v.v.c.z.h.d.i.e...} } |  ...e.y.s.h.z.c.v.v.v.z.s.9.! x - 5 m G @.=.-.>.:.:.=.$.! Z i - @ o L.L.L.L.L.",
"L.L.L.L.L.X & - i S o.&.=.-.-.,.-.=.@.F b 6 : h ! 9.u.j.z.v.c.c.z.z.f.a.y.r.....0.0.e.y.a.f.z.z.c.c.c.c.j.u.9.! h - 5 b G @.=.>.>.:.:.=.$.o.D i - @ o L.L.L.L.L.",
"L.L.L.L.L.o @ - a S o.@.*.:.-.,.-.*.&.G m 9 - f ! [ y.f.j.z.z.z.z.z.j.d.a.y.y.y.y.y.y.a.s.k.z.z.c.z.z.k.d.y.[ Y h - 9 u F @.=.:.:.>.,.*.&.+.Z i ; @ o L.L.L.L.L.",
"L.L.L.L.L.o @ - i S o.@.*.-.,.-.-.*.@.G b 9 - 4 ! ( ..a.f.j.z.c.c.c.l.j.f.s.a.s.a.a.s.f.j.l.x.x.z.z.j.f.y.0.` I 4 - 9 u F @.=.:.-.>.-.*.@.+.S i - @ o L.L.L.L.L.",
"L.L.L.L.L.o @ ; i S o.@.*.-.,.-.-.*.@.G m 9 : 4 c ^ } ..a.f.j.z.c.c.c.l.z.j.j.g.h.j.h.z.z.x.c.c.z.j.f.p.e. .^ L 4 - 9 N G @.=.-.,.-.-.*.@.o.S i - @ o L.L.L.L.L.",
"L.L.L.L.L.o @ - a S o.&.*.>.-.,.-.*.@.G N 9 - 2 c ! ` ....u.f.j.z.c.c.x.z.z.z.z.z.z.z.z.x.c.c.x.k.f.a.r...` ! c 2 - 9 N J @.=.:.-.,.-.-.@.! D i - @ o L.L.L.L.L.",
"L.L.L.L.L.o @ - i S ! &.*.,.>.,.,.*.o.o.C q : 1 l Y _ | t.p.d.f.l.x.x.c.c.c.v.v.c.v.c.c.c.c.x.l.h.a.y.0. .( Y c 1 : q N J @.-.:.-.,.,.-.&.o.F a : & o L.L.L.L.L.",
"L.L.L.L.L.o @ ; p D o.=.-.,.,.<.,.-.=.o.A q : < l Y ( | ..y.y.d.k.c.c.c.b.b.b.n.n.n.b.b.v.c.l.l.s.p.r.0.] ( Y x 1 : q C o.&.:.,.,.,.,.-.=.o.D a ; @ o L.L.L.L.L.",
"L.L.L.L.L.o @ ; p J @.*.,.<.<.<.<.,.*.o.A u 9 < l Y / [ ..r.y.d.f.l.c.v.b.m.m.m.m.m.n.b.v.c.l.f.p.i.e.0.| / Y l 1 : q A #.=.,.<.<.<.<.,.*.@.G a ; @ o L.L.L.L.L.",
"L.L.L.L.L.o & ; p J @.*.,.<.<.<.<.,.*.! F q : < k T / [ ..e...e.p.f.l.c.b.n.m.m.m.n.n.b.c.z.f.p.r.0.0.8.{ / I k 1 : u S o.*.,.<.<.2.<.,.*.@.J a ; @ o L.L.L.L.L.",
"L.L.L.L.L.o @ - i Z +.@.*.-.>.>.-.-.@.J N r - , d K R ~ _ { { } ..e.p.d.h.z.c.v.v.c.z.j.d.p.r...| } _ _ ~ R K d , - y V J @.=.>.,.-.-.*.@.! F i - @ X L.L.L.L.L.",
"L.L.L.L.L.o @ ; i V J @.-.-.>.>.-.-.@.J C y - , d K R Q ) _ _ [ ....y.d.h.z.z.v.c.c.z.h.d.i...| } _ { Q Q R K d , - r C J @.=.-.-.,.,.*.@.J N u - @ O L.L.L.L.L.",
"L.L.L.L.L.L.@ - s A J $.-.-.>.>.-.-.@.J C r - , d v T Q / _ ` ' | e.y.s.h.z.v.v.v.c.z.h.d.y.e.} { } _ Q Q T K d , - r V J @.-.-.>.,.-.*.&.J A i - @ L.L.L.L.L.L.",
"L.L.L.L.L.L.L.L.L.L.L.L.L.L.L.L.L.L.L.L.L.L.L.L.L.L.L.L.L.L.L.L.L.L.L.L.L.L.L.L.L.L.L.L.L.L.L.L.L.L.L.L.L.L.L.L.L.L.L.L.L.L.L.L.L.L.L.L.L.L.L.L.L.L.L.L.L.L.L.L.",
"L.L.L.L.L.L.L.L.L.L.L.L.L.L.L.L.L.L.L.L.L.L.L.L.L.L.L.L.L.L.L.L.L.L.L.L.L.L.L.L.L.L.L.L.L.L.L.L.L.L.L.L.L.L.L.L.L.L.L.L.L.L.L.L.L.L.L.L.L.L.L.L.L.L.L.L.L.L.L.L.",
"L.L.L.L.L.L.L.L.L.L.L.L.L.L.L.L.L.L.L.L.L.L.L.L.L.L.L.L.L.L.L.L.L.L.L.L.L.L.L.L.L.L.L.L.L.L.L.L.L.L.L.L.L.L.L.L.L.L.L.L.L.L.L.L.L.L.L.L.L.L.L.L.L.L.L.L.L.L.L.L.",
"L.L.L.L.L.L.L.L.L.L.L.L.L.L.L.L.L.L.L.L.L.L.L.L.L.L.L.L.L.L.L.L.L.L.L.L.L.L.L.L.L.L.L.L.L.L.L.L.L.L.L.L.L.L.L.L.L.L.L.L.L.L.L.L.L.L.L.L.L.L.L.L.L.L.L.L.L.L.L.L.",
"L.L.L.L.L.L.L.L.L.L.L.L.L.L.L.L.L.L.L.L.L.L.L.L.L.L.L.L.L.L.L.L.L.L.L.L.L.L.L.L.L.L.L.L.L.L.L.L.L.L.L.L.L.L.L.L.L.L.L.L.L.L.L.L.L.L.L.L.L.L.L.L.L.L.L.L.L.L.L.L."
};
