/* XPM */
static char *result[] = {
/* columns rows colors chars-per-pixel */
"80 80 251 2 ",
"   c None",
".  c #000A00",
"X  c #00040E",
"o  c #051403",
"O  c #171717",
"+  c #191919",
"@  c #181718",
"#  c #061015",
"$  c #041926",
"%  c #0F0E2F",
"&  c #241E37",
"*  c #3F1D34",
"=  c #082335",
"-  c #182232",
";  c #2A243A",
":  c #352339",
">  c #002A00",
",  c #491C31",
"<  c #41263D",
"1  c #4C191C",
"2  c #2B4818",
"3  c #3A4435",
"4  c #425338",
"5  c #150C49",
"6  c #280054",
"7  c #290046",
"8  c #092749",
"9  c #2D2848",
"0  c #372947",
"q  c #3C3359",
"w  c #2F2754",
"e  c #331D63",
"r  c #3A2C69",
"t  c #383170",
"y  c #162964",
"u  c #560E57",
"i  c #4A2A46",
"p  c #4D315C",
"a  c #44335A",
"s  c #56335D",
"d  c #4E2A52",
"f  c #702855",
"g  c #430771",
"h  c #4B3867",
"j  c #543563",
"k  c #5B3A6C",
"l  c #563769",
"z  c #492972",
"x  c #532C78",
"c  c #49357B",
"v  c #5A3677",
"b  c #4B2368",
"n  c #693A69",
"m  c #633E74",
"M  c #653D78",
"N  c #733D72",
"B  c #76387B",
"V  c #712F6E",
"C  c #68007F",
"Z  c #545A54",
"A  c #425342",
"S  c #59447A",
"D  c #565168",
"F  c #684479",
"G  c #744777",
"H  c #715971",
"J  c #6A6B6B",
"K  c #656564",
"L  c #777976",
"P  c #6F6974",
"I  c #636D5C",
"U  c #882A74",
"Y  c #9A2C74",
"T  c #8A3678",
"R  c #9A377A",
"E  c #8E2F6A",
"W  c #A12E78",
"Q  c #A4337B",
"!  c #88447B",
"~  c #81767E",
"^  c #828D7F",
"/  c #640781",
"(  c #4C3684",
")  c #493783",
"_  c #563987",
"`  c #5D298C",
"'  c #6E3690",
"]  c #56438A",
"[  c #5B4691",
"{  c #694687",
"}  c #76488A",
"|  c #63449A",
" . c #684896",
".. c #774B94",
"X. c #6D5299",
"o. c #74549B",
"O. c #7B5599",
"+. c #62508C",
"@. c #756390",
"#. c #7A4AA8",
"$. c #7D59A4",
"%. c #7857A5",
"&. c #6B4EA0",
"*. c #963B82",
"=. c #8A3F8E",
"-. c #A63D87",
";. c #89498A",
":. c #954389",
">. c #884C93",
",. c #984B91",
"<. c #83539C",
"1. c #89539B",
"2. c #9A5398",
"3. c #A94789",
"4. c #B54A8D",
"5. c #A64D98",
"6. c #B74E92",
"7. c #BB5094",
"8. c #A4549A",
"9. c #89788E",
"0. c #874EA5",
"q. c #8858A8",
"w. c #945BAC",
"e. c #9557A5",
"r. c #8649B4",
"t. c #8757B4",
"y. c #965BB7",
"u. c #954EB8",
"i. c #A65AA6",
"p. c #A95DB6",
"a. c #B154AB",
"s. c #9877AC",
"d. c #8C62B6",
"f. c #9B62BC",
"g. c #9463B8",
"h. c #8D6FAB",
"j. c #A767AD",
"k. c #A163BB",
"l. c #A563BB",
"z. c #B965B5",
"x. c #AA74B4",
"c. c #C15195",
"v. c #C04F94",
"b. c #C264BE",
"n. c #9B50C4",
"m. c #A25BC8",
"M. c #AF5CD5",
"N. c #9C66C4",
"B. c #9E72C0",
"V. c #A465C3",
"C. c #A56BCC",
"Z. c #AC6BCC",
"A. c #A768C8",
"S. c #B568C8",
"D. c #AE6DD2",
"F. c #AE64D1",
"G. c #B36ED3",
"H. c #BA6AD8",
"J. c #B372D5",
"K. c #B573DA",
"L. c #BA74DD",
"P. c #BA73D7",
"I. c #AC75CB",
"U. c #BD67E1",
"Y. c #BE77E1",
"T. c #BC79E2",
"R. c #C86DC6",
"E. c #D372CE",
"W. c #C674DB",
"Q. c #D476D5",
"!. c #C475D2",
"~. c #E17BDF",
"^. c #C46CE1",
"/. c #C177E2",
"(. c #C479E5",
"). c #C57BEA",
"_. c #CB7CEB",
"`. c #CC78E6",
"'. c #D17DED",
"]. c #DA7EEB",
"[. c #D679E5",
"{. c #D67EF2",
"}. c #E27EEC",
"|. c #E57EE2",
" X c #E07FF4",
".X c #828582",
"XX c #8E958D",
"oX c #969798",
"OX c #968A93",
"+X c #9DA39C",
"@X c #9885B3",
"#X c #AB93B1",
"$X c #A7A9A7",
"%X c #B9BAB9",
"&X c #B5A5B4",
"*X c #BDC1BC",
"=X c #B687D3",
"-X c #B38FC8",
";X c #B8ABCB",
":X c #C69AD7",
">X c #CA8AD4",
",X c #C6A9C7",
"<X c #D7BADA",
"1X c #CEB0D9",
"2X c #C785E3",
"3X c #D983ED",
"4X c #CA95E3",
"5X c #DC82F2",
"6X c #D785F2",
"7X c #D19BEA",
"8X c #E481EC",
"9X c #EB81ED",
"0X c #EA9AED",
"qX c #E382F2",
"wX c #EC84F2",
"eX c #E889F9",
"rX c #F386F1",
"tX c #F58BF4",
"yX c #F98BF4",
"uX c #FB8BFC",
"iX c #F289FB",
"pX c #F894F7",
"aX c #F99BFA",
"sX c #F498FC",
"dX c #EB97FB",
"fX c #DAB7EB",
"gX c #D0A7E3",
"hX c #E3B7EC",
"jX c #FBA4FE",
"kX c #FEABFF",
"lX c #F3A0FB",
"zX c #FFB0FF",
"xX c #E0BDF1",
"cX c #C7C8C6",
"vX c #D7D7D8",
"bX c #D1C9D1",
"nX c #DCE0DC",
"mX c #DAC8E7",
"MX c #EAC9E9",
"NX c #E5D5E9",
"BX c #EAD7F5",
"VX c #F7D5F6",
"CX c #F2C8F6",
"ZX c #E7E6E6",
"AX c #F5E9F7",
"SX c #F4F5F4",
"DX c #FEFDFE",
"FX c #FBF4FA",
"GX c #EEE3F0",
"HX c #E0E0DF",
"JX c None",
/* pixels */
"JXJXJXJXJXJXJXJXJXJXJXJXJXJXJXJXJXJXJXJXJXJXJXJXJXJXJXJXJXJXJXJXJXJXJXJXJXJXJXJXJXJXJXJXJXJXJXJXJXJXJXJXJXJXJXJXJXJXJXJXJXJXJXJXJXJXJXJXJXJXJXJXJXJXJXJXJXJXJXJX",
"JXJXJXJXJXJXJXJXJXJXJXJXJXJXJXJXJXJXJXJXJXJXJXJXJXJXJXJXJXJXJXJXJXJXJXJXJXJXJXJXJXJXJXJXJXJXJXJXJXJXJXJXJXJXJXJXJXJXJXJXJXJXJXJXJXJXJXJXJXJXJXJXJXJXJXJXJXJXJXJX",
"JXJXJXJXJXJXJXJXJXJXJXJXJXJXJXJXJXJXJXJXJXJXJXJXJXJXJXJXJXJXJXJXJXJXJXJXJXJXJXJXJXJXJXJXJXJXJXJXJXJXJXJXJXJXJXJXJXJXJXJXJXJXJXJXJXJXJXJXJXJXJXJXJXJXJXJXJXJXJXJX",
"JXJXJXJXJXJXJXJXJXJXJXJXJXJXJXJXJXJXJXJXJXJXJXJXJXJXJXJXJXJXJXJXJXJXJXJXJXJXJXJXJXJXJXJXJXJXJXJXJXJXJXJXJXJXJXJXJXJXJXJXJXJXJXJXJXJXJXJXJXJXJXJXJXJXJXJXJXJXJXJX",
"JXJXJXJXJXJXJXJXJXJXJXJXJXJXJXJXJXJXJXJXJXJXJXJXJXJXJXJXJXJXJXJXJXJXJXJXJXJXJXJXJXJXJXJXJXJXJXJXJXJXJXJXJXJXJXJXJXJXJXJXJXJXJXJXJXJXJXJXJXJXJXJXJXJXJXJXJXJXJXJX",
"JXJXJXJXJXJXJXJXJXJXJXJXJXJXJXJXJXJXJXJXJXJXJXJXJXJXJXJXJXJXJX                                    JXJXJXJXJXJXJXJXJXJXJXJXJXJXJXJXJXJXJXJXJXJXJXJXJXJXJXJXJXJXJX",
"JXJXJXJXJXJXJXJXJXJXJXJXJXJXJXJXJXJXJXJXJXJXJXJXJXJXJXJXJXJXJX                              .     JXJXJXJXJXJXJXJXJXJXJXJXJXJXJXJXJXJXJXJXJXJXJXJXJXJXJXJXJXJXJX",
"JXJXJXJXJXJXJXJXJXJXJXJXJXJXJXJXJXJXJXJXJXJXJXJXJXJXJXJXJXJX@ @ O + + + O @ @ @ O O O O + + + O O O JXJXJXJXJXJXJXJXJXJXJXJXJXJXJXJXJXJXJXJXJXJXJXJXJXJXJXJXJXJX",
"JXJXJXJXJXJXJXJXJXJXJXJXJXJXJXJXJXJXJXJXJXJXJXJXJXJXJXJXJXa p p l F F G H ! H ! H H G G G F F k j p d JXJXJXJXJXJXJXJXJXJXJXJXJXJXJXJXJXJXJXJXJXJXJXJXJXJXJXJXJX",
"JXJXJXJXJXJXJXJXJXJXJXJXJXJXJXJXJXJXJXJXJXJXJXJXJXJXJXJX& j v { <.e.h.j.j.j.x.x.x.z.x.j.j.j.1.O.{ v j & JXJXJXJXJXJXJXJXJXJXJXJXJXJXJXJXJXJXJXJXJXJXJXJXJXJXJXJX",
"JXJXJXJXJXJXJXJXJXJXJXJXJXJXJXJX      JXJXJXJXJXJXJXJX  & k } q.f.I.J.!.>X>X>X>X>X>X>X>X>XI.I.f.0.{ k &   JXJXJXJXJXJXJXJX      JXJXJXJXJXJXJXJXJXJXJXJXJXJXJXJX",
"JXJXJXJXJXJXJXJXJXJXJXJXJXJXJX          JXJXJXJXJXJX    0 M #.f.Z.!.3X4X0X0XlX0X0X0X0X0X3X2XW.D.y.0.M 0     JXJXJXJXJXJX        . JXJXJXJXJXJXJXJXJXJXJXJXJXJXJX",
"JXJXJXJXJXJXJXJXJXJXJXJXJXJXJXO @ @ @ @ JXJXJXJXJX    @ l ..y.F.W.6XeXdXlXkXkXkXzXkXjXlX0XeX6XT.F.y.<.l @     JXJXJXJXJXO @ O O O JXJXJXJXJXJXJXJXJXJXJXJXJXJXJX",
"JXJXJXJXJXJXJXJXJXJXJXJXJXJXK K K L J K JXJXJXJXJX% 0 k <.y.S.W.3X6XdXsXjXzXzXzXzXzXkXjXlXdX5X'.Y.Z.y.>.k 0 % JXJXJXJXJXK J L J J I JXJXJXJXJXJXJXJXJXJXJXJXJXJX",
"JXJXJXJXJXJXJXJXJXJXJXJXJXK .XXX+X$XoXXXL JXJXJX7 b M >.p.S.W.`.3XeXsXaXjXzXzXzXzXzXkXkXlXsXeX5X`.W.S.f.<.M b 7 JXJXJXL XX+X$XoXXX@.K JXJXJXJXJXJXJXJXJXJXJXJXJX",
"JXJXJXJXJXJXJXJXJXJXJXJXO J XX&X*XbX*X$X^ 2     6 ` 0.k.G.^.Q.[.qXeXsXjXjXzXkXzXzXzXkXjXjXsXeX8X[.Q.W.G.l.0.` 6 . . 2 ^ $X*XcX,X&XXXJ @ JXJXJXJXJXJXJXJXJXJXJXJX",
"JXJXJXJXJXJXJXJXJXJX    + J +XcXvXZXvX*XXX4 . . g ' V.G.W.[.}.}.9XtXpXaXjXkXkXkXkXkXjXjXaXpXtX9X}.].[./.J.y.#.g     4 XX*XvXnXnX*X+XJ @     JXJXJXJXJXJXJXJXJXJX",
"JXJXJXJXJXJXJXJXJXJX    @ L $XvXGXSXSXcX+XI O 7 C r.Z.(._.5XwX}.rXtXpXaXjXjXjXkXkXkXjXjXaXpXyXrX}.}.].'./.F.0./ 7 + I +XcXSXSXZXvX&XL @     JXJXJXJXJXJXJXJXJXJX",
"JXJXJXJXJXJXJXJXJXJX    + 9.%XnXSXDXSXHX%XXXH G 0.V.L.).{.qX X}.rXtXpXpXlXjXjXjXjXjXjXaXpXpXyXrXrX X X{._.L.f.0.G H XX%XHXSXDXSXHX%X.X+     JXJXJXJXJXJXJXJXJXJX",
"JXJXJXJXJXJXJXJXJXJX    + .X*XHXSXDXDXGXbX&X#Xs.x.J.T._.{.qXwXwXrXyXyXpXaXaXaXlXaXaXaXpXpXpXyXrXrXwX X{.2XL.J.x.j.#X&XbXZXDXDXSXZX%X.X+     JXJXJXJXJXJXJXJXJXJX",
"JXJXJXJXJXJXJXJXJXJX    + .X*XHXSXDXDXSXHX<X&X>X>X=X)._.{. X}.rXyXyXyXyXpXpXpXpXpXpXpXpXyXyXyXyX}.}. X{.^.).2X>X-X,X<XHXSXDXDXSXnX*X.X+     JXJXJXJXJXJXJXJXJXJX",
"JXJXJXJXJXJXJXJXJXJX    + L %XnXSXDXDXFXGXMX<X<X:X4X2X`.^.[.}.rXrXyXyXyXyXyXyXtXtXtXtXtXyXyXyXrXrX}.].`.(.2X>X4X<X<XMXGXFXDXDXSXvX%XL +     JXJXJXJXJXJXJXJXJXJX",
"JXJXJXJXJXJXJXJXJXJX    O L $XcXHXSXFXFXAXVXMXhXhX4X2X/.^.[.].}.rXyXrXrXrX9XrXrXrX9XrXrXrXrXrXwX}.}.[.^./.2X4XfXhXMXVXAXFXDXSXZXcX$XL @     JXJXJXJXJXJXJXJXJXJX",
"JXJXJXJXJXJXJXJXJXJX    O J oX%XvXHXZXAXVXVXVXCXfX4X2XH.^.^.[.}.9X9X9X9X9X8X9X9X9X9X9X8X9X9XrXwX}.}.^.H.L.2X7XfXhXVXVXAXAXGXZXcX%XoXJ @     JXJXJXJXJXJXJXJXJXJX",
"JXJXJXJXJXJXJXJXJXJXJXJX+ K XX+X%XcXvXNXVXVXVXCXhXgX>XA.F.H.`.].8X9XqX8X}.}.}.}.}.}.}.}.8XqXwX8X].`.H.F.Z.=X:XhXCXVXVXGXNXvXcX%X+XXXK @ JXJXJXJXJXJXJXJXJXJXJXJX",
"JXJXJXJXJXJXJXJXJXJXJXJXJXZ L .XXX+X%XbXMXVXVXCXhX:X-Xf.m.F.W.[.5X3X5X{.].].].].].3X].].].qX5X5X[.W.F.m.N.-X:XhXCXVXVXMXbX%X+XOX^ L Z JXJXJXJXJXJXJXJXJXJXJXJXJX",
"JXJXJXJXJXJXJXJXJXJXJXJXJXJXJXA Z J OX,X<XVXVXCXfX;Xx.d.t.V.H./.'.6X{.3X'.'.'._.'.`._.'.'.3X{._./.H.N.t.d.x.:XfXCXVXMXMX,XoXJ Z A JXJXJXJXJXJXJXJXJXJXJXJXJXJXJX",
"JXJXJXJXJXJXJXJXJXJXJXJXJXJXJX    O H #X,XMXCXhXgX-Xs.%.#.u.A.K.W./././.W././././././.Y./.)././.H.A.y.#.$.s.-X1XMXCXhX,X#XH +     JXJXJXJXJXJXJXJXJXJXJXJXJXJXJX",
"JXJXJXJXJXJXJXJXJXJXJXJXJXJXJX      i 9.&X,X<X<X,X#Xh.X. .#.y.A.D.J.J.D.D.D.D.D.F.D.D.D.D.D.D.Z.A.y.#.o.o.h.@X,X<X<X1X&X~ i       JXJXJXJXJXJXJXJXJXJXJXJXJXJXJX",
"JXJXJXJXJXJXJXJXJXJXJXJXJXJXJX        H OX#X-X&X#Xh.o.+.' X.$.q.y.y.f.f.N.N.N.N.N.N.N.N.N.f.f.y.q.#. .'  .@.s.#X,X&X#X9.H         JXJXJXJXJXJXJXJXJXJXJXJXJXJXJX",
"JXJXJXJXJXJXJXJXJXJXJXJXJXJXJX        4 H ~ 9.9.9.@.] ] _ _ { } } ..O.#.0.t.r.$.t.r.t.0.#.....} } { _ _ ] +.@.9.9.9.~ H 4         JXJXJXJXJXJXJXJXJXJXJXJXJXJXJX",
"JXJXJXJXJXJXJXJXJXJXJXJXJXJXJX        > 2 4 Z Z S S S ) ( c x p p j k _ ' | | |  .| | { _ k j p p z c _ c c S D n Z 4 2 >         JXJXJXJXJXJXJXJXJXJXJXJXJXJXJX",
"JXJXJXJXJXJXJXJXJXJXJXJXJXJXJXO O @ @ o o . O 9 w z c ( ( r w % O - w b c ( ( ( ( _ ) ) r w % @ & w r x ( c z w 9 O . o o O O O O JXJXJXJXJXJXJXJXJXJXJXJXJXJXJX",
"JXJXJXJXJXJXJXJXJXJXJXJXJXJXJXF N n N V f u u u b x ( _ ( t w 8 X $ 8 e t ) ) ) ( ) ) t r 5 % X $ w t c ( _ x b u u u V V N n n n JXJXJXJXJXJXJXJXJXJXJXJXJXJXJX",
"JXJXJXJXJXJXJXJXJXJXJXJXJXi G ;.2.8.a.5.5.,.=.=.>.'  .] ) t e 6 7 6 e z ( _ [ [ [ [ ] ( z e 6 5 6 e t ( ]  .} ..=.=.-.5.i.i.8.8.:.G i JXJXJXJXJXJXJXJXJXJXJXJXJX",
"JXJXJXJXJXJXJXJXJXJXJXJX. : ! 8.z.R.E.E.E.R.b.z.p.e...| ( c g e 6 / ( _  .X.&.%.o.o.X. ._ x g g 6 z ) ( | ..e.i.z.b.R.R.E.E.R.z.i.G <   JXJXJXJXJXJXJXJXJXJXJXJX",
"JXJXJXJXJXJXJXJXJXJXJX    d ;.z.E.~.9X9X|.|.|.Q.R.l.q.o.[ ] ) ` ` ` | &.%.$.$.%.$.$.%.o.#.| _ ` ` ` [ [ X.$.l.R.Q.~.|.9XrX9X~.E.j.;.i     JXJXJXJXJXJXJXJXJXJXJX",
"JXJXJXJXJXJXJXJXJXJX    @ N i.R.~.rXyXyXuXtXrX|.!.S.g.$.&.&.%.%.q.$.$.$.$.$.$.$.$.$.$.$.$.$.$.$.$.%.&.%.$.g.S.!.|.rXyXuXyXyXrX~.R.j.N +     JXJXJXJXJXJXJXJXJXJX",
"JXJXJXJXJXJXJXJXJX< < d G 2.b.Q.8XrXuXuXuXuXtX8XQ.P.l.d.$.@X@X@X@X@X@X$.O.o.X. . .X.o.@.h.h.@X@X@XB.h.$.d.A.P.[.}.tXuXuXuXuXyX|.Q.R.8.G d < : JXJXJXJXJXJXJXJXJX",
"JXJXJXJXJXJXJXJXs G ! ;.j.z.Q.[.8XeXiXuXiXiXiXqX[.W.Z.l.B.-X;X;X;X;X#XOX@.{ x b b v ] @.@X#X;X;X;X;X-XB.B.D.!.[. XiXiXiXiXiXwX}.Q.E.b.j.;.! G f JXJXJXJXJXJXJXJX",
"JXJXJXJXJXJXJX+ n ! i.z.E.Q.Q.8X[.3X5XqXqX5X5X5X`.^.H.G.=X:X1XmXnXbX%XoXP a % % X % r P oX;XcXvXmX1X;X=XG.H.^.`.].5XqXqXqX5X].].[.[.Q.R.z.8.! D O JXJXJXJXJXJXJX",
"JXJXJXJXJX    @ n ,.z.E.8X9X9X[.[.`._._._.3X'._.(.^.U.Y.4XfXBXGXZXnX*X+XJ #     X   $ J +XcXnXZXGXBXfX4XY.U.^.`._.'.'._.2X_.`.[.].}.9X9XE.z.2.f O     JXJXJXJXJX",
"JXJXJXJXJX    @ G i.R.|.9XrXwX3X`./.L.Y.W.T././.U.U.U./.4XfXBXSXSXZXcX$XP O         O J +XcXZXSXSXBXfX4XY.U.U.U./././.Y.T.Y.Y.`.].wXiXrX9XR.i.G O     JXJXJXJXJX",
"JXJXJXJXJX    + B j.Q.9XyXtXeX3X).T.K.K.D.D.D.F.F.M.M.H.4XfXBXAXSXGXbX$X9.s % X # % s @.&XbXZXAXAXBXfX4XU.M.M.F.F.D.D.J.K.K.Y._.{.iXiXtX8XE.j.! +     JXJXJXJXJX",
"JXJXJXJXJX    + G i.E.|.eXeXeX{._.Y.K.I.C.y.y.y.u.u.n.A.=XgXmXBXBXNXfX;Xs...' C / ' >.s.&X<XNXBXBXmX4X=XA.n.u.u.w.g.f.V.D.K.Y.`.6XqXeXwX[.E.i.G +     JXJXJXJXJX",
"JXJXJXJXJX    + m e.S.W.{.5X6X6X_.(.K.Z.g.q...} ' #.#.r.B.=X4XfXxXfXgX=XI.l.y.u.u.u.l.I.=XgXhXxXfXgX=XB.r.#.' ..} ..q.f.A.K.)._.{.6X5X{.Q.S.e.F +     JXJXJXJXJX",
"JXJXJXJXJX    @ n 1.V.P.`.{.{.'._.).P.k.1.} j a r z _ | $.B.K.4X7X7X7X2X!.P.G.G.R.H.G.L.4X4X7X7X4X=XB.%.| _ z z a j } 1.V.K./._.{.6X3X`.L.V.1.n O     JXJXJXJXJX",
"JXJXJXJXJX    @ k <.l.G.Y.`._._._./.S.f...s @   X 8 e ) &.t.A.D.T.).).T././././.^././.(.(.).`./.D.C.t.&.( y 5 X   @ s } f.G./._._._.)./.J.l.<.l O     JXJXJXJXJX",
"JXJXJXJXJX    @ l <.f.G.Y.).).)./.K.A.w.G 0       8 y t | #.n.n.M.U.K.U.U.Y.T.T.T.T.K.K.U.U.M.M.m.n.#._ ) y = .     0 G e.A.K.T.).).).Y.G.N.<.l O     JXJXJXJXJX",
"JXJXJXJXJX    + k 0.V.J./.).).Y.L.D.f.<.F :     . 8 t _ | #.#.n.n.n.m.N.N.C.C.D.M.C.C.C.m.M.n.n.n.#.#.| ] t 8 X     ; F 0.f.D.L.Y.).).T.K.V.0.k @     JXJXJXJXJX",
"JXJXJXJXJX    + F q.V.L.)._.).T.I.N.d...l : . . = t ] &.&.&.#.#.#.#.#.n.t.t.t.t.t.t.t.t.r.r.#.#.#.#.&.&.+.] h 8 .   : k ..d.N.I.K.)._.).L.A.e.m +     JXJXJXJXJX",
"JXJXJXJXJX    + m e.Z.W.).).T.D.C.d.O.{ h : o - q S X.&.%.&.&.| | | | | | | | | | | | | | | | ' | &.&.#.%.+.S q - o : j { $.d.V.K.Y.).).W.Z.q.m +     JXJXJXJXJX",
"JXJXJXJXJX    @ k 1.l.P./.Y.K.C.d.$.X.h a & @ ; D { O.$.$.o. ._ ( ) z ) ( ( ( ( ) ( ( ) ( t ( ( _ &.&.$.$...{ j ; O ; q S +.$.g.C.J.L.W.P.V.1.k O     JXJXJXJXJX",
"JXJXJXJXJX    @ j } y.Z.J.G.V.f.<.X.S D 0 - @ : s { O.1.0...' M ` z g ( x v v v _ _ x ( ` x z x _ ' ..<.0.O.G s : O - 9 h S +.q.g.Z.J.J.Z.y.} j O     JXJXJXJXJX",
"JXJXJXJXJXJXJX@ j } 1.w.k.k.g.q.} ] D q ; $ O * s G ;.;.>.;.' V x V V B B B B B B B ' B V V V V B ' =.>.>.;.G s : O $ 9 q D S o.q.w.k.l.w.1.} p @ JXJXJXJXJXJXJX",
"JXJXJXJXJXJXJXJXp F } } <.<...{ S h w 9 = $ O * d V T R *.R U U U U U =.:.:.:.:.:.:.:.R T U V U V *.Y *.R T V d , O # = 9 q j S { O.<.<.} } m p JXJXJXJXJXJXJXJX",
"JXJXJXJXJXJXJXJXJXp j j l m l p a 0 ; - $ o O , u f U Y Y Y Y Y Y Y Q 3.3.3.5.3.3.3.3.3.! R R Y Y Y Y Y E E f f , O o $ - 9 0 a j l k k j j p JXJXJXJXJXJXJXJXJX",
"JXJXJXJXJXJXJXJXJXJXO O @ + @ @ O O O o o o O , f U E -.W W W Y W W Q -.3.6.6.6.6.6.6.4.4.3.Q Q Y Y -.-.Y E E f , O o o o # O O + + O O O O JXJXJXJXJXJXJXJXJXJX",
"JXJXJXJXJXJXJXJXJXJXJX              . . . . O i f E -.-.-.-.-.-.Y -.-.4.6.7.7.7.7.7.7.4.3.3.Q R -.-.-.-.-.-.T f < @ . . . . .             JXJXJXJXJXJXJXJXJXJXJX",
"JXJXJXJXJXJXJXJXJXJXJX                  . . @ d V *.5.a.a.a.5.:.*.3.3.5.6.7.c.7.c.c.7.6.4.3.3.:.=.-.a.a.a.-.:.N d @ .                     JXJXJXJXJXJXJXJXJXJXJX",
"JXJXJXJXJXJXJXJXJXJXJXJXJXJXJXJXJXJXJX      @ s ;.e.p.z.S.p.i.e.;.,.3.3.6.7.7.c.c.c.c.6.4.,.,.1.,.i.p.S.z.p.e.' s @       JXJXJXJXJXJXJXJXJXJXJXJXJXJXJXJXJXJXJX",
"JXJXJXJXJXJXJXJXJXJXJXJXJXJXJXJXJXJXJXJX    @ l >.w.S.^.K.C.y.q.<.<.2.8.6.7.c.c.c.c.7.6.8.2.1.O.u.n.S.H.P.S.p.>.j @     JXJXJXJXJXJXJXJXJXJXJXJXJXJXJXJXJXJXJXJX",
"JXJXJXJXJXJXJXJXJXJXJXJXJXJXJXJXJXJXJXJX    @ k 1.V.G./.T.K.B.d.$.<.>.8.4.6.6.4.c.6.4.8.,.2.O.$.d.N.D.T./.P.l.1.k @     JXJXJXJXJXJXJXJXJXJXJXJXJXJXJXJXJXJXJXJX",
"JXJXJXJXJXJXJXJXJXJXJXJXJXJXJXJXJXJXJXJX    @ k e.A.L.).2XK.C.d.$.@.<.,.,.4.Q 3.6.Q R ,.,.>.%.%.d.C.K.).).L.A.q.m @     JXJXJXJXJXJXJXJXJXJXJXJXJXJXJXJXJXJXJXJX",
"JXJXJXJXJXJXJXJXJXJXJXJXJXJXJXJXJXJXJXJX    + m q.Z.Y.).).T.C.N.$.$.O.;.:.! E E E E ! ~ ;.>.O.$.d.I.T.T.2XT.K.t.k +     JXJXJXJXJXJXJXJXJXJXJXJXJXJXJXJXJXJXJXJX",
"JXJXJXJXJXJXJXJXJXJXJXJXJXJXJXJXJXJXJXJX    + m w.Z./._.2XT.C.N.$.o.@.G ! f E E E f E E } } o.$.N.I.T.2XT.T.D.y.F +     JXJXJXJXJXJXJXJXJXJXJXJXJXJXJXJXJXJXJXJX",
"JXJXJXJXJXJXJXJXJXJXJXJXJXJXJXJXJXJXJXJX    O F w.S.T.).T.2XC.N.q.o.{ S s < , 1 1 , , Z F { X.q.N.I.2XT._.W.F.q.m +     JXJXJXJXJXJXJXJXJXJXJXJXJXJXJXJXJXJXJXJX",
"JXJXJXJXJXJXJXJXJXJXJXJXJXJXJXJXJXJXJXJX    O k 1.V.P./.T.K.C.$.O.X.S h 0 + .     . + < h S +.%.$.C.K.T./.P.V.0.k O     JXJXJXJXJXJXJXJXJXJXJXJXJXJXJXJXJXJXJXJX",
"JXJXJXJXJXJXJXJXJXJXJXJXJXJXJXJXJXJXJXJX    O j } w.A.G.K.D.N.q.o.{ S q = .         . - q S { o.q.f.Z.J.J.A.w.} j O     JXJXJXJXJXJXJXJXJXJXJXJXJXJXJXJXJXJXJXJX",
"JXJXJXJXJXJXJXJXJXJXJXJXJXJXJXJXJXJXJXJXJXJXO s } q.w.p.N.g.q.o.+.S q w =             = w h D { O.q.f.k.f.w.1.} s @ JXJXJXJXJXJXJXJXJXJXJXJXJXJXJXJXJXJXJXJXJXJX",
"JXJXJXJXJXJXJXJXJXJXJXJXJXJXJXJXJXJXJXJXJXJXJXp m } } 1.<.<...{ k a q 9 JXJXJXJXJXJXJXJX9 q q S { ..O.1.<.} } m p JXJXJXJXJXJXJXJXJXJXJXJXJXJXJXJXJXJXJXJXJXJXJX",
"JXJXJXJXJXJXJXJXJXJXJXJXJXJXJXJXJXJXJXJXJXJXJXJXp s j l k D j a 0 0 9 ; JXJXJXJXJXJXJXJX; 9 9 0 a h k m l j s s JXJXJXJXJXJXJXJXJXJXJXJXJXJXJXJXJXJXJXJXJXJXJXJX",
"JXJXJXJXJXJXJXJXJXJXJXJXJXJXJXJXJXJXJXJXJXJXJXJXJXO O @ + + + + @ O O JXJXJXJXJXJXJXJXJXJXO O + + + + + @ @ @ JXJXJXJXJXJXJXJXJXJXJXJXJXJXJXJXJXJXJXJXJXJXJXJXJX",
"JXJXJXJXJXJXJXJXJXJXJXJXJXJXJXJXJXJXJXJXJXJXJXJXJXJX              . JXJXJXJXJXJXJXJXJXJXJXJX    .           JXJXJXJXJXJXJXJXJXJXJXJXJXJXJXJXJXJXJXJXJXJXJXJXJXJX",
"JXJXJXJXJXJXJXJXJXJXJXJXJXJXJXJXJXJXJXJXJXJXJXJXJXJX                JXJXJXJXJXJXJXJXJXJXJXJX                JXJXJXJXJXJXJXJXJXJXJXJXJXJXJXJXJXJXJXJXJXJXJXJXJXJX",
"JXJXJXJXJXJXJXJXJXJXJXJXJXJXJXJXJXJXJXJXJXJXJXJXJXJXJXJXJXJXJXJXJXJXJXJXJXJXJXJXJXJXJXJXJXJXJXJXJXJXJXJXJXJXJXJXJXJXJXJXJXJXJXJXJXJXJXJXJXJXJXJXJXJXJXJXJXJXJXJX",
"JXJXJXJXJXJXJXJXJXJXJXJXJXJXJXJXJXJXJXJXJXJXJXJXJXJXJXJXJXJXJXJXJXJXJXJXJXJXJXJXJXJXJXJXJXJXJXJXJXJXJXJXJXJXJXJXJXJXJXJXJXJXJXJXJXJXJXJXJXJXJXJXJXJXJXJXJXJXJXJX",
"JXJXJXJXJXJXJXJXJXJXJXJXJXJXJXJXJXJXJXJXJXJXJXJXJXJXJXJXJXJXJXJXJXJXJXJXJXJXJXJXJXJXJXJXJXJXJXJXJXJXJXJXJXJXJXJXJXJXJXJXJXJXJXJXJXJXJXJXJXJXJXJXJXJXJXJXJXJXJXJX",
"JXJXJXJXJXJXJXJXJXJXJXJXJXJXJXJXJXJXJXJXJXJXJXJXJXJXJXJXJXJXJXJXJXJXJXJXJXJXJXJXJXJXJXJXJXJXJXJXJXJXJXJXJXJXJXJXJXJXJXJXJXJXJXJXJXJXJXJXJXJXJXJXJXJXJXJXJXJXJXJX",
"JXJXJXJXJXJXJXJXJXJXJXJXJXJXJXJXJXJXJXJXJXJXJXJXJXJXJXJXJXJXJXJXJXJXJXJXJXJXJXJXJXJXJXJXJXJXJXJXJXJXJXJXJXJXJXJXJXJXJXJXJXJXJXJXJXJXJXJXJXJXJXJXJXJXJXJXJXJXJXJX"
};
