/* XPM */
static char *result[] = {
/* columns rows colors chars-per-pixel */
"80 80 167 2 ",
"   c None",
".  c #00000B",
"X  c #00080F",
"o  c #1A120B",
"O  c #000012",
"+  c #030B13",
"@  c #000F1C",
"#  c #071116",
"$  c #0B1115",
"%  c #01151D",
"&  c #171717",
"*  c #181717",
"=  c #181817",
"-  c #121618",
";  c #171C1F",
":  c #191919",
">  c #201406",
",  c #20170D",
"<  c #281A0A",
"1  c #221C16",
"2  c #201C18",
"3  c #372409",
"4  c #27211B",
"5  c #2A241D",
"6  c #372817",
"7  c #31261C",
"8  c #33291D",
"9  c #392A19",
"0  c #1C2023",
"q  c #272521",
"w  c #2D2924",
"e  c #332B23",
"r  c #3B2E21",
"t  c #3D3022",
"y  c #3C3329",
"u  c #43321F",
"i  c #4C381F",
"p  c #51391C",
"a  c #443422",
"s  c #483724",
"d  c #4A3925",
"f  c #41362A",
"g  c #45392C",
"h  c #4B3C2B",
"j  c #533E25",
"k  c #513E29",
"l  c #4D3F30",
"z  c #574127",
"x  c #55412A",
"c  c #5B442B",
"v  c #5F482E",
"b  c #554432",
"n  c #594630",
"m  c #624624",
"M  c #6A4C26",
"N  c #634A2D",
"B  c #694E2E",
"V  c #6E512E",
"C  c #74542B",
"Z  c #644D32",
"A  c #694F30",
"S  c #675037",
"D  c #6B5133",
"F  c #66513A",
"G  c #6C543A",
"H  c #735634",
"J  c #765936",
"K  c #7B5B34",
"L  c #70573B",
"P  c #745A3C",
"I  c #7B5D3A",
"U  c #7F603C",
"Y  c #745C41",
"T  c #795E40",
"R  c #7D6242",
"E  c #815F36",
"W  c #846236",
"Q  c #8C6635",
"!  c #84643C",
"~  c #89663B",
"^  c #8C693E",
"/  c #946E3D",
"(  c #9A723F",
")  c #846644",
"_  c #856846",
"`  c #8B6941",
"'  c #836748",
"]  c #876A48",
"[  c #8B6D4B",
"{  c #926E42",
"}  c #8F704E",
"|  c #967246",
" . c #9C7444",
".. c #94734D",
"X. c #9B7649",
"o. c #9E784A",
"O. c #977752",
"+. c #987750",
"@. c #9D7A53",
"#. c #A17642",
"$. c #A47A45",
"%. c #AA7D45",
"&. c #A47C4B",
"*. c #A97F4A",
"=. c #A27E55",
"-. c #AE8047",
";. c #AC814D",
":. c #B38447",
">. c #B4854B",
",. c #B6884D",
"<. c #BB8B4D",
"1. c #A68155",
"2. c #AD8453",
"3. c #A78258",
"4. c #AB855A",
"5. c #B18652",
"6. c #B58953",
"7. c #BC8D53",
"8. c #B38B5D",
"9. c #B98E5A",
"0. c #BF9056",
"q. c #BC905C",
"w. c #B68E60",
"e. c #B79061",
"r. c #BC9262",
"t. c #C08E4F",
"y. c #C08F52",
"u. c #C39254",
"i. c #C99556",
"p. c #CD9957",
"a. c #C4945A",
"s. c #C99759",
"d. c #CD9B5C",
"f. c #D19E5E",
"g. c #C39764",
"h. c #C59966",
"j. c #CD9D64",
"k. c #C69A68",
"l. c #CA9D6A",
"z. c #D19E60",
"x. c #CFA16C",
"c. c #D4A162",
"v. c #DAA565",
"b. c #DEA866",
"n. c #D3A46D",
"m. c #DAA76B",
"M. c #DCA96B",
"N. c #D7A872",
"B. c #DCAB72",
"V. c #E0AA67",
"C. c #E3AD6B",
"Z. c #ECB36D",
"A. c #E1AE74",
"S. c #E4B174",
"D. c #ECB574",
"F. c #E6B378",
"G. c #EAB67A",
"H. c #EEB97C",
"J. c #F3BC7D",
"K. c #F6C07F",
"L. c #F8C07E",
"P. c #F5BF80",
"I. c #FBC483",
"U. c #FFCB89",
"Y. c #FFD38E",
"T. c #FFD590",
"R. c None",
/* pixels */
"R.R.R.R.R.R.R.R.R.R.R.R.R.R.R.R.R.R.R.R.R.R.R.R.R.R.R.R.R.R.R.R.R.R.R.R.R.R.R.R.R.R.R.R.R.R.R.R.R.R.R.R.R.R.R.R.R.R.R.R.R.R.R.R.R.R.R.R.R.R.R.R.R.R.R.R.R.R.R.R.",
"R.R.R.R.R.R.R.R.R.R.R.R.R.R.R.R.R.R.R.R.R.R.R.R.R.R.R.R.R.R.R.R.R.R.R.R.R.R.R.R.R.R.R.R.R.R.R.R.R.R.R.R.R.R.R.R.R.R.R.R.R.R.R.R.R.R.R.R.R.R.R.R.R.R.R.R.R.R.R.R.",
"R.R.R.R.R.R.R.R.R.R.R.R.R.R.R.R.R.R.R.R.R.R.R.R.R.R.R.R.R.R.R.R.R.R.R.R.R.R.R.R.R.R.R.R.R.R.R.R.R.R.R.R.R.R.R.R.R.R.R.R.R.R.R.R.R.R.R.R.R.R.R.R.R.R.R.R.R.R.R.R.",
"R.R.R.R.R.R.R.R.R.R.R.R.R.R.R.R.R.R.R.R.R.R.R.R.R.R.R.R.R.R.R.R.R.R.R.R.R.R.R.R.R.R.R.R.R.R.R.R.R.R.R.R.R.R.R.R.R.R.R.R.R.R.R.R.R.R.R.R.R.R.R.R.R.R.R.R.R.R.R.R.",
"R.R.R.R.R.R.R.R.R.R.R.R.R.R.R.R.R.R.R.R.R.R.R.R.R.R.R.R.R.R.R.R.R.R.R.R.R.R.R.R.R.R.R.R.R.R.R.R.R.R.R.R.R.R.R.R.R.R.R.R.R.R.R.R.R.R.R.R.R.R.R.R.R.R.R.R.R.R.R.R.",
"R.R.R.R.R.R.R.R.R.R.R.R.R.R.R.R.R.R.R.R.R.R.R.R.R.R.      R.R.R.R.R.R.R.R.            R.R.R.R.R.R.R.R.      R.R.R.R.R.R.R.R.R.R.R.R.R.R.R.R.R.R.R.R.R.R.R.R.R.R.",
"R.R.R.R.R.R.R.R.R.R.R.R.R.R.R.R.R.R.R.R.R.R.R.R.R.          R.R.R.R.R.R.                R.R.R.R.R.R.          R.R.R.R.R.R.R.R.R.R.R.R.R.R.R.R.R.R.R.R.R.R.R.R.R.",
"R.R.R.R.R.R.R.R.R.R.R.R.R.R.R.R.R.R.R.R.R.R.R.R.R.& & * * * R.R.R.R.R.* * * : : : : & & & R.R.R.R.R.& = & & & R.R.R.R.R.R.R.R.R.R.R.R.R.R.R.R.R.R.R.R.R.R.R.R.R.",
"R.R.R.R.R.R.R.R.R.R.R.R.R.R.R.R.R.R.R.R.R.R.R.R.A F G Y G F R.R.R.R.R.F G P R ] ) R P G F R.R.R.R.R.F G Y G F A R.R.R.R.R.R.R.R.R.R.R.R.R.R.R.R.R.R.R.R.R.R.R.R.",
"R.R.R.R.R.R.R.R.R.R.R.R.R.R.R.R.R.R.R.R.R.R.R.A ' O.=.4.@.O.R R.R.R.L [ +.4.e.r.r.e.4.+.} L R.R.R.T O.@.4.=.O.] S R.R.R.R.R.R.R.R.R.R.R.R.R.R.R.R.R.R.R.R.R.R.R.",
"R.R.R.R.R.R.R.R.R.R.R.R.R.R.R.R.R.R.R.R.R.R.: G +.w.k.n.k.4.[ y   e R 3.r.x.B.B.S.N.x.r.3.R e   y [ 8.k.m.l.8.+.G & R.R.R.R.R.R.R.R.R.R.R.R.R.R.R.R.R.R.R.R.R.R.",
"R.R.R.R.R.R.R.R.R.R.R.R.R.R.R.R.R.R.R.R.    & L =.l.F.G.F.k.O.g . y ' r.n.G.J.I.I.P.G.m.r.' y . g O.l.B.G.A.l.=.L &     R.R.R.R.R.R.R.R.R.R.R.R.R.R.R.R.R.R.R.R.",
"R.R.R.R.R.R.R.R.R.R.R.R.R.R.R.R.R.R.R.R.    * I 8.B.P.I.H.x.@.c * b ..h.F.I.U.U.U.U.I.F.g...x * b @.n.H.I.J.B.8.T &     R.R.R.R.R.R.R.R.R.R.R.R.R.R.R.R.R.R.R.R.",
"R.R.R.R.R.R.R.R.R.R.R.R.R.R.R.R.R.R.R.R.    : R r.B.P.I.J.M.4.I z I 4.n.H.U.Y.T.Y.Y.U.P.n.3.I z I 4.B.J.I.J.A.r.R :     R.R.R.R.R.R.R.R.R.R.R.R.R.R.R.R.R.R.R.R.",
"R.R.R.R.R.R.R.R.R.R.R.R.R.R.R.R.R.R.R.R.    : R 8.B.H.J.J.m.9./ U | q.B.I.U.Y.T.T.T.U.P.B.q.| W / 9.M.J.I.H.M.8.R :     R.R.R.R.R.R.R.R.R.R.R.R.R.R.R.R.R.R.R.R.",
"R.R.R.R.R.R.R.R.R.R.R.R.R.R.R.R.R.R.R.R.    = P 2.c.S.D.D.v.u.$.( ;.a.A.J.U.U.Y.Y.U.U.H.B.g.;.( $.u.v.S.D.S.j.2.P =     R.R.R.R.R.R.R.R.R.R.R.R.R.R.R.R.R.R.R.R.",
"R.R.R.R.R.R.R.R.R.R.R.R.R.R.R.R.R.R.R.R.    * D o.q.v.C.C.c.u.:.:.7.z.C.P.I.U.U.U.U.I.J.A.z.<.:.:.u.z.C.C.v.q.&.F =     R.R.R.R.R.R.R.R.R.R.R.R.R.R.R.R.R.R.R.R.",
"R.R.R.R.R.R.R.R.R.R.R.R.R.R.R.R.R.R.R.R.    * Z | 5.a.c.c.d.t.<.7.a.c.A.H.I.U.I.U.I.I.J.A.c.u.t.<.u.f.c.c.a.5.{ Z =     R.R.R.R.R.R.R.R.R.R.R.R.R.R.R.R.R.R.R.R.",
"R.R.R.R.R.R.R.R.R.R.R.R.R.R.R.R.R.R.R.R.    * c U  .;.0.u.u.t.t.y.p.v.C.G.J.I.I.I.I.J.J.C.v.p.u.<.t.u.u.u.2. .! x &     R.R.R.R.R.R.R.R.R.R.R.R.R.R.R.R.R.R.R.R.",
"R.R.R.R.R.R.R.R.R.R.R.R.R.R.R.R.R.R.      . & d B I {  .;.:.>.<.u.p.v.C.S.G.H.J.J.G.G.S.V.v.p.u.<.>.:.%. .^ I Z d = .       R.R.R.R.R.R.R.R.R.R.R.R.R.R.R.R.R.R.",
"R.R.R.R.R.R.R.R.R.R.R.R.R.R.R.R.R.        . & e a d m H Q ( %.,.u.p.v.v.b.A.S.S.A.S.C.V.v.c.p.i.<.%.( Q C c k a e & .         R.R.R.R.R.R.R.R.R.R.R.R.R.R.R.R.R.",
"R.R.R.R.R.R.R.R.R.R.R.R.R.R.R.R.          O & 2 $ . . 6 m W ( :.t.p.f.f.v.m.b.b.b.M.m.v.c.f.p.t.:.( W m 6 . . $ 2 & O           R.R.R.R.R.R.R.R.R.R.R.R.R.R.R.R.",
"R.R.R.R.R.R.R.R.R.R.R.R.R.R.R.* * * : * : & & $ O . . - j C / %.t.u.p.f.f.z.c.c.c.c.z.f.f.p.u.<.%./ C j & . . O $ = & : : : & & * R.R.R.R.R.R.R.R.R.R.R.R.R.R.R.",
"R.R.R.R.R.R.R.R.R.R.R.R.R.R.F G L Y Y Z h 5 $ - q y b Z P ~ | #.%.<.y.u.d.f.c.c.c.z.d.d.u.7.<.-.#.( ~ P v b y q - $ q h Z P T L L F R.R.R.R.R.R.R.R.R.R.R.R.R.R.",
"R.R.R.R.R.R.R.R.R.R.R.R.R.A ] @.=.4.4...F e O : b T } @.@.o.../ ( #.:.7.s.f.z.z.c.f.f.s.7.:.#.( { | @.@.@.O.T b : O e F ..3.4.=.@.' A R.R.R.R.R.R.R.R.R.R.R.R.R.",
"R.R.R.R.R.R.R.R.R.R.R.R.= G @.w.l.n.l.4.) e . w Y =.r.l.k.w.o.) K Q  .5.a.f.v.v.v.c.f.a.5. .W K ~ +.w.l.l.r.=.Y e . e R 4.x.n.l.e.+.G * R.R.R.R.R.R.R.R.R.R.R.R.",
"R.R.R.R.R.R.R.R.R.R.    = L =.l.F.G.F.g.[ f . f [ r.B.P.A.l.=.L j m ~ *.a.z.v.v.b.v.f.a.;.~ m z L =.k.B.P.N.r.[ f . f [ r.B.G.F.l.=.L &     R.R.R.R.R.R.R.R.R.R.",
"R.R.R.R.R.R.R.R.R.R.    = T 8.B.P.I.H.x.@.n : c O.l.P.I.H.n.=.F = 9 J &.a.z.v.V.b.v.c.q.&.H 9 : F =.l.P.P.P.l.@.n * n @.x.P.I.P.B.8.T &     R.R.R.R.R.R.R.R.R.R.",
"R.R.R.R.R.R.R.R.R.R.    : R r.A.P.I.J.M.4.P z P 4.N.K.I.J.n.@.b . + A o.y.z.v.V.V.v.c.u.$.A $ . b @.n.H.I.J.M.2.I j I 2.N.J.I.P.A.e.R :     R.R.R.R.R.R.R.R.R.R.",
"R.R.R.R.R.R.R.R.R.R.    : R 8.B.H.P.J.M.7.{ E { 8.m.D.L.S.h...g   . A o.a.z.v.V.V.v.f.a.o.C * . b ..l.F.J.D.m.9.{ E { 9.B.J.J.J.M.8.R :     R.R.R.R.R.R.R.R.R.R.",
"R.R.R.R.R.R.R.R.R.R.    = P 2.j.A.D.D.b.a.;.#.%.0.v.S.S.m.9.] y   + A $.a.z.v.V.b.v.f.q.&.H 7 O k [ q.m.S.S.v.y.*.#.*.a.V.Z.D.S.x.2.L :     R.R.R.R.R.R.R.R.R.R.",
"R.R.R.R.R.R.R.R.R.R.    = D o.q.c.C.C.v.s.<.>.<.u.c.b.m.j.2.U e . 4 L $.a.z.v.V.b.v.c.a.&.I a $ h ) 2.j.M.M.z.a.<.:.<.s.v.C.C.v.q.&.D &     R.R.R.R.R.R.R.R.R.R.",
"R.R.R.R.R.R.R.R.R.R.    & Z { 2.a.c.c.f.i.t.<.t.u.f.c.c.a.*.I s & s I *.a.c.v.b.b.v.c.a.&.I s & s U &.a.c.c.f.i.<.<.t.i.f.c.c.a.5.{ Z &     R.R.R.R.R.R.R.R.R.R.",
"R.R.R.R.R.R.R.R.R.R.    + j ! o.5.0.u.u.<.>.:.,.u.p.f.f.a.;.^ B j Z ^ ;.a.z.v.b.b.v.c.a.&.I s $ a I &.a.f.z.p.u.,.>.:.,.u.u.0.,. .! z +     R.R.R.R.R.R.R.R.R.R.",
"R.R.R.R.R.R.R.R.R.R.      6 B ~  .;.%.#. ./ ( #.>.u.f.c.d.9.&.~ I W  .6.a.z.v.v.b.v.z.u.&.I r O r I &.a.f.d.u.>.$./ / ( #.*.*. .! Z 6       R.R.R.R.R.R.R.R.R.R.",
"R.R.R.R.R.R.R.R.R.R.        u N I ! ~ I M m M W #.0.p.v.c.s.>.#.(  .;.7.d.c.v.v.v.v.c.q.&.P e . 5 I ;.a.z.d.7. .W M m C I ! ~ I B a         R.R.R.R.R.R.R.R.R.R.",
"R.R.R.R.R.R.R.R.R.R.        + a x c c a o   < N | 5.d.v.v.f.u.>.*.:.7.a.d.c.v.v.v.v.c.a.&.J e . e I ;.a.c.d.6./ N <   1 a c v x a +         R.R.R.R.R.R.R.R.R.R.",
"R.R.R.R.R.R.R.R.R.R.& & * : : = & & # .     : v ` 2.a.c.c.f.i.<.<.<.u.s.d.c.c.v.v.v.c.a.&.I s & d ~ 2.d.c.d.5.{ N =   . . # & & * : : & & * R.R.R.R.R.R.R.R.R.R.",
"R.R.R.R.R.R.R.R.R.R.P Y L G n e O     O q g F R | 1.9.a.a.i.u.t.t.i.s.p.j.c.c.v.v.v.z.a.;.` A z D { 7.d.c.j.q.=.) F y 0 O     . e n G P Y P R.R.R.R.R.R.R.R.R.R.",
"R.R.R.R.R.R.R.R.F [ =.3.3.=.' b O   O g Y } @.3.1.1.;.;.>.<.<.t.u.i.p.p.f.c.c.c.v.c.c.d.6. .~ W ^ $.7.d.c.c.j.a.8.@.' Y y .   O b ' =.3.3.=.[ F R.R.R.R.R.R.R.R.",
"R.R.R.R.R.R.R.= G @.r.l.x.k.3.Y ;   % G @.r.x.l.r.3...` /  .:.<.u.p.p.p.z.c.c.v.c.v.z.d.u.>.#.#.$.<.i.z.v.b.M.M.m.l.w.O.Y @   ; Y 3.k.x.x.r.@.G & R.R.R.R.R.R.R.",
"R.R.R.R.R.    = L 3.l.F.G.B.g.[ y . y [ r.A.P.F.l.3.R v m E ( :.t.p.p.f.z.z.c.c.c.c.c.d.u.7.,.>.<.y.s.z.v.V.S.H.G.G.N.w.R e . y [ g.A.G.B.x.3.G &     R.R.R.R.R.",
"R.R.R.R.R.    = P 8.B.P.I.J.x.@.c = c @.l.P.I.P.n.=.F & > m Q %.t.u.p.p.z.z.z.v.c.c.c.j.p.u.<.<.<.u.u.p.z.M.D.J.I.I.G.l.O.x & b @.n.J.I.P.B.w.T &     R.R.R.R.R.",
"R.R.R.R.R.    : ) r.A.L.U.J.N.4.P x P 2.x.P.I.F.n.=.b     3 C / %.<.u.p.d.z.v.c.v.c.c.d.i.u.,.>.:.:.7.6.a.z.C.J.I.I.H.n.1.P z I 2.N.J.I.P.B.r.R :     R.R.R.R.R.",
"R.R.R.R.R.    : R 9.B.D.L.J.M.9.{ W / 8.m.D.K.F.k...h       p C / %.5.y.d.z.v.v.v.c.c.d.0.>.$. .{ / /  .&.9.z.A.J.J.D.n.6.{ E { 9.M.J.L.J.B.9.R :     R.R.R.R.R.",
"R.R.R.R.R.    : I 4.n.A.D.D.b.a.-. .*.u.n.S.D.m.r.` h       . p V ^ &.6.d.z.v.v.v.v.c.a.6.&.~ J B N B A I | 8.j.C.S.S.c.9.*.#.;.a.b.D.D.A.v.4.P :     R.R.R.R.R.",
"R.R.R.R.R.    : L &.a.v.C.C.v.p.<.>.<.a.c.b.v.j.6.] h         . u D { 5.a.z.v.v.b.v.c.a.;.` D a - . . & s L X.9.z.M.v.c.u.<.:.<.s.v.C.C.v.a.=.H :     R.R.R.R.R.",
"R.R.R.R.R.    : Z { 5.a.c.v.f.i.<.<.t.u.f.c.c.a.;.` N =         & v ` *.a.z.M.V.b.v.c.a.;.` N *         & N ` 5.a.f.c.f.i.y.<.t.i.f.c.c.a.5.{ N :     R.R.R.R.R.",
"R.R.R.R.R.    = x ! o.5.u.a.u.7.,.:.<.u.p.f.f.s.6.o.U N s 7 : 1 u D | ;.a.c.v.b.b.v.c.a.2.{ H a & . O 4 d H | 2.a.z.z.p.u.<.,.,.<.u.a.a.2. .U c &     R.R.R.R.R.",
"R.R.R.R.R.R.R.= z J `  .;.>.;.$.#.$.:.7.s.f.f.f.u.5.&.{ ~ J H B J ~  .5.s.z.v.n.v.v.c.a.6.#.~ C M B D J ! | ;.0.d.c.z.s.<.-.$.#.%.;.>.;. .` J z & R.R.R.R.R.R.R.",
"R.R.R.R.R.R.R.R.h D J I ^ { ^ W E W  .;.u.f.v.v.z.d.9.5.;.*. . .( $.,.0.d.c.v.v.v.c.c.d.u.>.$.( (  .#.;.;.9.a.z.v.c.f.u.:.( Q I W ^ { ` U J D k R.R.R.R.R.R.R.R.",
"R.R.R.R.R.R.R.R.R.k z c N B c s u c I o.9.d.v.v.v.c.z.d.a.y.<.>.:.,.0.u.d.c.c.c.v.c.c.d.a.7.,.>.>.6.u.a.d.j.v.v.V.v.f.7.&.I c u s c Z Z c x k R.R.R.R.R.R.R.R.R.",
"R.R.R.R.R.R.R.R.R.R.& * & # .     : v ^ ;.a.c.v.v.v.c.c.f.s.u.t.<.t.u.p.d.c.c.c.c.c.c.d.s.u.t.<.<.u.s.f.c.c.v.v.v.c.a.;.~ Z &     . # & & & R.R.R.R.R.R.R.R.R.R.",
"R.R.R.R.R.R.R.R.R.R.R.            . h U o.6.a.d.z.j.j.d.d.u.<.,.,.,.u.u.d.c.c.v.v.c.c.d.a.7.<.>.,.7.u.s.j.d.z.z.d.a.5.o.I h .             R.R.R.R.R.R.R.R.R.R.R.",
"R.R.R.R.R.R.R.R.R.R.R.              a H ` o.5.9.0.9.9.6.5.;.*.#. .-.,.u.d.c.c.v.c.v.c.d.u.,.%.#.#.$.;.5.9.7.7.7.9.>.o.` L a               R.R.R.R.R.R.R.R.R.R.R.",
"R.R.R.R.R.R.R.R.R.R.R.R.R.R.R.R.R.R.R.Z H ! ` X.o. . .| { ^ E J W ^ ;.6.a.c.v.v.m.v.c.a.6.*./ I K W ^ | | | X.o.o.` ! J Z R.R.R.R.R.R.R.R.R.R.R.R.R.R.R.R.R.R.R.",
"R.R.R.R.R.R.R.R.R.R.R.R.R.R.R.R.R.R.R.x x c Z D D D D Z N z s u z J | ;.a.c.v.v.b.v.c.a.5.| I z u s z N Z Z D D D Z c x k R.R.R.R.R.R.R.R.R.R.R.R.R.R.R.R.R.R.R.",
"R.R.R.R.R.R.R.R.R.R.R.R.R.R.R.R.R.R.R.R.* * * : * : & * # .     = v ^ 1.a.c.v.b.b.v.z.a.;.^ v *     . # = : : : : & & & R.R.R.R.R.R.R.R.R.R.R.R.R.R.R.R.R.R.R.R.",
"R.R.R.R.R.R.R.R.R.R.R.R.R.R.R.R.R.R.R.R.R.                      . k ! ;.u.c.v.V.b.v.z.a.;.~ k .                       R.R.R.R.R.R.R.R.R.R.R.R.R.R.R.R.R.R.R.R.R.",
"R.R.R.R.R.R.R.R.R.R.R.R.R.R.R.R.R.R.R.R.R.                      . x ~ ;.q.c.b.b.b.v.c.a.*.) k .                       R.R.R.R.R.R.R.R.R.R.R.R.R.R.R.R.R.R.R.R.R.",
"R.R.R.R.R.R.R.R.R.R.R.R.R.R.R.R.R.R.R.R.R.R.R.R.R.R.R.R.R.      O c ^ 2.a.c.v.b.b.v.c.a.2.` c O       R.R.R.R.R.R.R.R.R.R.R.R.R.R.R.R.R.R.R.R.R.R.R.R.R.R.R.R.R.",
"R.R.R.R.R.R.R.R.R.R.R.R.R.R.R.R.R.R.R.R.R.R.R.R.R.R.R.R.R.R.    $ Z ` ;.a.c.v.b.b.v.c.a.;.` Z $     R.R.R.R.R.R.R.R.R.R.R.R.R.R.R.R.R.R.R.R.R.R.R.R.R.R.R.R.R.R.",
"R.R.R.R.R.R.R.R.R.R.R.R.R.R.R.R.R.R.R.R.R.R.R.R.R.R.R.R.R.R.    & Z ` 2.a.c.v.b.b.v.c.a.2.{ N &     R.R.R.R.R.R.R.R.R.R.R.R.R.R.R.R.R.R.R.R.R.R.R.R.R.R.R.R.R.R.",
"R.R.R.R.R.R.R.R.R.R.R.R.R.R.R.R.R.R.R.R.R.R.R.R.R.R.R.R.R.R.    * N | ;.a.c.v.b.b.v.c.a.5.` Z &     R.R.R.R.R.R.R.R.R.R.R.R.R.R.R.R.R.R.R.R.R.R.R.R.R.R.R.R.R.R.",
"R.R.R.R.R.R.R.R.R.R.R.R.R.R.R.R.R.R.R.R.R.R.R.R.R.R.R.R.R.R.    & N ` 2.a.c.v.V.b.v.c.a.2.{ Z &     R.R.R.R.R.R.R.R.R.R.R.R.R.R.R.R.R.R.R.R.R.R.R.R.R.R.R.R.R.R.",
"R.R.R.R.R.R.R.R.R.R.R.R.R.R.R.R.R.R.R.R.R.R.R.R.R.R.R.R.R.R.    & Z { 5.a.z.v.b.b.v.c.a.5.{ Z &     R.R.R.R.R.R.R.R.R.R.R.R.R.R.R.R.R.R.R.R.R.R.R.R.R.R.R.R.R.R.",
"R.R.R.R.R.R.R.R.R.R.R.R.R.R.R.R.R.R.R.R.R.R.R.R.R.R.R.R.R.R.    = Z { 5.a.c.v.b.V.v.z.a.5.` Z &     R.R.R.R.R.R.R.R.R.R.R.R.R.R.R.R.R.R.R.R.R.R.R.R.R.R.R.R.R.R.",
"R.R.R.R.R.R.R.R.R.R.R.R.R.R.R.R.R.R.R.R.R.R.R.R.R.R.R.R.R.R.    = Z ` ;.a.c.v.b.v.v.c.a.5.` Z &     R.R.R.R.R.R.R.R.R.R.R.R.R.R.R.R.R.R.R.R.R.R.R.R.R.R.R.R.R.R.",
"R.R.R.R.R.R.R.R.R.R.R.R.R.R.R.R.R.R.R.R.R.R.R.R.R.R.R.R.R.R.    & Z { 5.a.c.b.V.V.V.c.d.5.{ Z &     R.R.R.R.R.R.R.R.R.R.R.R.R.R.R.R.R.R.R.R.R.R.R.R.R.R.R.R.R.R.",
"R.R.R.R.R.R.R.R.R.R.R.R.R.R.R.R.R.R.R.R.R.R.R.R.R.R.R.R.R.R.    & A | 8.d.b.C.Z.Z.C.v.p.6.| A *     R.R.R.R.R.R.R.R.R.R.R.R.R.R.R.R.R.R.R.R.R.R.R.R.R.R.R.R.R.R.",
"R.R.R.R.R.R.R.R.R.R.R.R.R.R.R.R.R.R.R.R.R.R.R.R.R.R.R.R.R.R.    : D X.0.c.C.Z.Z.Z.Z.C.v.9.X.A :     R.R.R.R.R.R.R.R.R.R.R.R.R.R.R.R.R.R.R.R.R.R.R.R.R.R.R.R.R.R.",
"R.R.R.R.R.R.R.R.R.R.R.R.R.R.R.R.R.R.R.R.R.R.R.R.R.R.R.R.R.R.    : D  .7.c.C.Z.Z.Z.Z.C.f.7.o.D *     R.R.R.R.R.R.R.R.R.R.R.R.R.R.R.R.R.R.R.R.R.R.R.R.R.R.R.R.R.R.",
"R.R.R.R.R.R.R.R.R.R.R.R.R.R.R.R.R.R.R.R.R.R.R.R.R.R.R.R.R.R.    & Z ` 2.a.c.v.b.b.v.z.a.2.` Z &     R.R.R.R.R.R.R.R.R.R.R.R.R.R.R.R.R.R.R.R.R.R.R.R.R.R.R.R.R.R.",
"R.R.R.R.R.R.R.R.R.R.R.R.R.R.R.R.R.R.R.R.R.R.R.R.R.R.R.R.R.R.    & v ~ *.a.c.v.b.b.v.z.a.;.~ c &     R.R.R.R.R.R.R.R.R.R.R.R.R.R.R.R.R.R.R.R.R.R.R.R.R.R.R.R.R.R.",
"R.R.R.R.R.R.R.R.R.R.R.R.R.R.R.R.R.R.R.R.R.R.R.R.R.R.R.R.R.R.R.  & n ~ ;.a.c.v.b.b.v.c.a.1.~ v &   R.R.R.R.R.R.R.R.R.R.R.R.R.R.R.R.R.R.R.R.R.R.R.R.R.R.R.R.R.R.R.",
"R.R.R.R.R.R.R.R.R.R.R.R.R.R.R.R.R.R.R.R.R.R.R.R.R.R.R.R.R.R.R.R.R.R.R.R.R.R.R.R.R.R.R.R.R.R.R.R.R.R.R.R.R.R.R.R.R.R.R.R.R.R.R.R.R.R.R.R.R.R.R.R.R.R.R.R.R.R.R.R.",
"R.R.R.R.R.R.R.R.R.R.R.R.R.R.R.R.R.R.R.R.R.R.R.R.R.R.R.R.R.R.R.R.R.R.R.R.R.R.R.R.R.R.R.R.R.R.R.R.R.R.R.R.R.R.R.R.R.R.R.R.R.R.R.R.R.R.R.R.R.R.R.R.R.R.R.R.R.R.R.R.",
"R.R.R.R.R.R.R.R.R.R.R.R.R.R.R.R.R.R.R.R.R.R.R.R.R.R.R.R.R.R.R.R.R.R.R.R.R.R.R.R.R.R.R.R.R.R.R.R.R.R.R.R.R.R.R.R.R.R.R.R.R.R.R.R.R.R.R.R.R.R.R.R.R.R.R.R.R.R.R.R.",
"R.R.R.R.R.R.R.R.R.R.R.R.R.R.R.R.R.R.R.R.R.R.R.R.R.R.R.R.R.R.R.R.R.R.R.R.R.R.R.R.R.R.R.R.R.R.R.R.R.R.R.R.R.R.R.R.R.R.R.R.R.R.R.R.R.R.R.R.R.R.R.R.R.R.R.R.R.R.R.R.",
"R.R.R.R.R.R.R.R.R.R.R.R.R.R.R.R.R.R.R.R.R.R.R.R.R.R.R.R.R.R.R.R.R.R.R.R.R.R.R.R.R.R.R.R.R.R.R.R.R.R.R.R.R.R.R.R.R.R.R.R.R.R.R.R.R.R.R.R.R.R.R.R.R.R.R.R.R.R.R.R."
};
